<?xml version="1.0" encoding="utf-8"?>
<!-- Generator: Adobe Illustrator 24.0.0, SVG Export Plug-In . SVG Version: 6.00 Build 0)  -->
<svg version="1.1" id="Layer_1" xmlns="http://www.w3.org/2000/svg" xmlns:xlink="http://www.w3.org/1999/xlink" x="0px" y="0px"
	 viewBox="0 0 520.5 189" style="enable-background:new 0 0 520.5 189;" xml:space="preserve">
<style type="text/css">
	.st0{fill:#FFFFFF;}
	.st1{fill:#38342A;}
	.st2{fill:#BBB19B;}
	.st3{fill:#99917E;}
	.st4{fill:#DACFB3;}
	.st5{fill:#807A6D;}
	.st6{fill:#C5BBA4;}
	.st7{fill:#ADA593;}
</style>
<title>modmenuonlineLogo</title>
<g>
	<path class="st0" d="M198.7,24.6c-1.3-0.9-3.1-1.3-5.2-1.3c-5.6,0-8.4,3.6-8.4,10.9v7.6h11.9V47h-11.9v42.5h-6V47h-8.3v-5.2h8.3v-8
		c0-2.4,0.3-4.6,0.9-6.5c0.6-1.9,1.5-3.6,2.7-5c1.2-1.4,2.7-2.4,4.4-3.2c1.8-0.7,3.8-1.1,6.2-1.1c2.2,0,4,0.3,5.3,0.9V24.6z"/>
	<path class="st0" d="M232.1,89.5V81h-0.2c-1.6,3-3.7,5.4-6.4,7.1c-2.7,1.7-5.7,2.5-9.1,2.5c-2.3,0-4.4-0.3-6.2-1
		c-1.8-0.7-3.4-1.6-4.7-2.8c-1.3-1.2-2.3-2.6-3-4.3s-1-3.5-1-5.5c0-4.3,1.3-7.8,4-10.3c2.7-2.6,6.7-4.2,12.1-5l14.5-2.1
		c0-9.2-3.6-13.7-10.7-13.7c-5.6,0-10.7,2-15.5,6.1v-6.5c1-0.7,2.1-1.4,3.4-1.9c1.3-0.6,2.6-1.1,4-1.5s2.8-0.7,4.3-1
		c1.5-0.2,2.9-0.3,4.3-0.3c5.3,0,9.3,1.5,12,4.5c2.7,3,4.1,7.4,4.1,13.3v31H232.1z M219.8,66.4c-2.1,0.3-4,0.7-5.5,1.2
		c-1.5,0.5-2.8,1.1-3.8,1.9c-1,0.8-1.7,1.8-2.2,2.9s-0.7,2.6-0.7,4.3c0,1.3,0.2,2.5,0.7,3.5c0.4,1.1,1.1,2,2,2.8
		c0.9,0.8,1.9,1.4,3.1,1.8c1.2,0.4,2.6,0.7,4.2,0.7c2.1,0,4-0.4,5.8-1.2c1.8-0.8,3.3-1.9,4.6-3.4c1.3-1.4,2.3-3.1,3-5.1
		c0.7-2,1.1-4.1,1.1-6.5v-4.7L219.8,66.4z"/>
	<path class="st0" d="M258.3,81.8v7.7h-6V18.9h6v32h0.2c1.8-3.3,4.1-5.9,7.1-7.6c3-1.8,6.3-2.6,10-2.6c3,0,5.8,0.6,8.2,1.7
		c2.4,1.1,4.4,2.7,6.1,4.7c1.7,2,2.9,4.5,3.8,7.4c0.9,2.9,1.3,6.1,1.3,9.6c0,3.9-0.5,7.5-1.5,10.8c-1,3.2-2.4,6-4.3,8.4
		c-1.9,2.3-4.1,4.1-6.8,5.4c-2.7,1.3-5.6,1.9-8.9,1.9c-6.7,0-11.7-2.9-15-8.8H258.3z M258.3,69.7c0,2.2,0.4,4.2,1.1,6.1
		c0.7,1.9,1.7,3.6,3,5s2.9,2.6,4.7,3.4c1.8,0.8,3.9,1.3,6.1,1.3c2.4,0,4.5-0.5,6.5-1.5c1.9-1,3.6-2.4,4.9-4.3
		c1.3-1.9,2.4-4.1,3.1-6.7c0.7-2.6,1.1-5.6,1.1-8.8c0-2.8-0.3-5.3-1-7.6c-0.7-2.2-1.7-4.2-2.9-5.7s-2.8-2.8-4.6-3.6
		c-1.8-0.8-3.8-1.3-6-1.3c-2.5,0-4.7,0.5-6.7,1.4c-2,0.9-3.7,2.2-5.1,3.7c-1.4,1.6-2.5,3.4-3.2,5.6c-0.7,2.1-1.1,4.4-1.1,6.8V69.7z"
		/>
	<path class="st0" d="M330.7,47.9c-1.4-1-3.2-1.5-5.4-1.5c-1.6,0-3,0.3-4.2,0.9c-1.2,0.6-2.3,1.4-3.2,2.4c-0.9,1-1.7,2.2-2.3,3.6
		c-0.6,1.4-1.1,2.8-1.5,4.2c-0.4,1.5-0.7,2.9-0.8,4.4c-0.2,1.5-0.3,2.9-0.3,4.2v23.3h-5.9V41.8h5.9V52h0.2c0.6-1.7,1.3-3.3,2.1-4.7
		c0.9-1.4,1.8-2.5,3-3.5c1.1-0.9,2.3-1.7,3.7-2.2c1.3-0.5,2.7-0.7,4.2-0.7c1,0,1.8,0.1,2.6,0.2c0.8,0.1,1.5,0.3,2.1,0.6V47.9z"/>
	<path class="st0" d="M342.3,29.8c-1.1,0-2.1-0.4-3-1.2c-0.8-0.8-1.3-1.8-1.3-3.1c0-1.2,0.4-2.2,1.3-3s1.8-1.2,3-1.2
		c0.6,0,1.1,0.1,1.7,0.3c0.5,0.2,1,0.5,1.4,0.9c0.4,0.4,0.7,0.8,0.9,1.3c0.2,0.5,0.3,1.1,0.3,1.7c0,0.6-0.1,1.1-0.3,1.7
		c-0.2,0.5-0.5,1-0.9,1.4c-0.4,0.4-0.9,0.7-1.4,0.9C343.5,29.7,342.9,29.8,342.3,29.8z M339.4,89.5V41.8h6v47.7H339.4z"/>
	<path class="st0" d="M392.4,87.4c-3.5,2.1-7.8,3.2-12.8,3.3c-3.4,0-6.5-0.6-9.2-1.8c-2.7-1.2-5.1-2.9-7-5.1
		c-1.9-2.2-3.4-4.7-4.4-7.6c-1-2.9-1.5-6.1-1.5-9.6c0-3.6,0.5-6.9,1.6-10.1c1.1-3.1,2.7-5.9,4.7-8.2c2.1-2.3,4.6-4.2,7.6-5.6
		c3-1.4,6.5-2,10.3-2c3.9,0,7.5,0.8,10.8,2.3v6.3c-3.5-2.3-7.2-3.4-11.3-3.4c-2.8,0-5.3,0.5-7.5,1.6c-2.2,1.1-4.1,2.5-5.6,4.4
		c-1.5,1.8-2.7,4-3.4,6.5c-0.8,2.5-1.2,5.1-1.2,7.8c0,2.5,0.3,5,1,7.3c0.7,2.3,1.7,4.4,3.1,6.2c1.4,1.8,3.1,3.2,5.2,4.3
		c2.1,1.1,4.6,1.6,7.4,1.6c4.5,0,8.5-1.3,12.1-4V87.4z"/>
	<path class="st0" d="M193.5,164.5h-5.7l-18.2-47.7h6.6l13.2,36.3c0.8,2.2,1.3,4.1,1.5,5.8h0.2c0.4-2.2,0.9-4.1,1.4-5.6l13.6-36.5
		h6.4L193.5,164.5z"/>
	<path class="st0" d="M223.2,141.7c0,2.9,0.4,5.5,1.2,7.9c0.7,2.3,1.8,4.3,3.2,5.9c1.4,1.6,3.1,2.8,5.1,3.7c2,0.9,4.3,1.3,6.8,1.3
		c5.4,0,10.4-1.9,15.2-5.6v5.9c-4.6,3.3-10.1,4.9-16.6,4.9c-3.2,0-6.1-0.6-8.7-1.7c-2.6-1.1-4.8-2.7-6.7-4.9s-3.2-4.7-4.2-7.8
		c-1-3.1-1.5-6.6-1.5-10.6c0-3.6,0.5-6.9,1.6-9.9c1.1-3,2.6-5.7,4.5-7.9c1.9-2.2,4.2-4,6.8-5.2c2.6-1.3,5.5-1.9,8.7-1.9
		c3.1,0,5.8,0.5,8.1,1.6c2.4,1.1,4.3,2.6,5.9,4.6c1.6,2,2.8,4.4,3.7,7.3c0.8,2.9,1.3,6.1,1.3,9.6v3H223.2z M251.5,136.5
		c-0.1-5-1.3-8.8-3.5-11.5c-2.3-2.7-5.4-4.1-9.4-4.1c-2,0-3.9,0.4-5.6,1.1c-1.7,0.7-3.2,1.7-4.5,3.1c-1.3,1.3-2.4,3-3.2,4.9
		c-0.9,1.9-1.5,4.1-1.8,6.5H251.5z"/>
	<path class="st0" d="M293,122.9c-1.4-1-3.2-1.5-5.4-1.5c-1.6,0-3,0.3-4.2,0.9c-1.2,0.6-2.3,1.4-3.2,2.4c-0.9,1-1.7,2.2-2.3,3.6
		c-0.6,1.4-1.1,2.8-1.5,4.2c-0.4,1.5-0.7,2.9-0.8,4.4c-0.2,1.5-0.3,2.9-0.3,4.2v23.3h-5.9v-47.7h5.9V127h0.2
		c0.6-1.7,1.3-3.3,2.1-4.7c0.9-1.4,1.8-2.5,3-3.5c1.1-0.9,2.3-1.7,3.7-2.2c1.3-0.5,2.7-0.7,4.2-0.7c1,0,1.8,0.1,2.6,0.2
		c0.8,0.1,1.5,0.3,2.1,0.6V122.9z"/>
	<path class="st0" d="M299.6,155.9c0.9,0.7,1.9,1.4,2.9,1.9s2.1,1,3.3,1.4c1.1,0.4,2.2,0.7,3.4,0.9c1.1,0.2,2.2,0.3,3.2,0.3
		c7.1,0,10.6-2.7,10.6-8c0-1.2-0.2-2.3-0.7-3.1s-1.2-1.7-2.1-2.4c-0.9-0.7-2-1.4-3.4-2c-1.3-0.6-2.8-1.3-4.4-2
		c-2.2-0.9-4.1-1.8-5.7-2.7c-1.6-0.9-2.9-1.9-3.9-3c-1-1.1-1.8-2.3-2.3-3.6c-0.5-1.3-0.7-2.8-0.7-4.5c0-2.1,0.5-4,1.4-5.6
		c0.9-1.6,2.1-3,3.7-4.2c1.6-1.1,3.3-2,5.4-2.6c2-0.6,4.2-0.9,6.4-0.9c4.1,0,7.7,0.8,10.8,2.3v6.3c-3.6-2.3-7.4-3.4-11.5-3.4
		c-1.5,0-2.8,0.2-4.1,0.6c-1.2,0.4-2.3,0.9-3.1,1.6c-0.9,0.7-1.5,1.5-2,2.4c-0.5,0.9-0.7,2-0.7,3.1c0,1.2,0.2,2.2,0.6,3.1
		c0.4,0.9,1,1.7,1.7,2.4s1.8,1.4,3.1,2c1.3,0.7,2.8,1.4,4.6,2.1c2.3,0.9,4.3,1.9,6,2.8s3.1,1.9,4.1,3c1.1,1.1,1.9,2.3,2.4,3.6
		c0.5,1.3,0.8,2.8,0.8,4.6c0,2.1-0.4,4-1.3,5.7c-0.9,1.7-2.1,3.1-3.7,4.2c-1.6,1.1-3.4,2-5.5,2.6c-2.1,0.6-4.4,0.9-6.9,0.9
		c-4.8,0-8.9-1-12.1-3V155.9z"/>
	<path class="st0" d="M344,104.8c-1.1,0-2.1-0.4-3-1.2c-0.8-0.8-1.3-1.8-1.3-3.1c0-1.2,0.4-2.2,1.3-3c0.8-0.8,1.8-1.2,3-1.2
		c0.6,0,1.1,0.1,1.7,0.3c0.5,0.2,1,0.5,1.4,0.9c0.4,0.4,0.7,0.8,0.9,1.3s0.3,1.1,0.3,1.7c0,0.6-0.1,1.1-0.3,1.7
		c-0.2,0.5-0.5,1-0.9,1.4c-0.4,0.4-0.9,0.7-1.4,0.9C345.2,104.7,344.6,104.8,344,104.8z M341,164.5v-47.7h6v47.7H341z"/>
	<path class="st0" d="M381.9,165.6c-3.5,0-6.7-0.6-9.5-1.8c-2.8-1.2-5.2-2.8-7.2-5c-2-2.2-3.5-4.7-4.6-7.8c-1.1-3-1.6-6.3-1.6-10
		c0-4,0.6-7.5,1.7-10.7c1.1-3.1,2.7-5.8,4.8-8c2.1-2.2,4.6-3.9,7.5-5c2.9-1.1,6.2-1.7,9.8-1.7c3.4,0,6.5,0.6,9.3,1.7
		c2.8,1.1,5.1,2.8,7,4.9c1.9,2.1,3.4,4.7,4.4,7.8c1,3.1,1.5,6.6,1.5,10.5c0,3.7-0.5,7.1-1.6,10.2s-2.6,5.7-4.6,7.9
		c-2,2.2-4.4,3.9-7.3,5.1C388.7,165,385.5,165.6,381.9,165.6z M382.3,120.9c-2.6,0-5,0.5-7.1,1.4c-2.1,0.9-3.9,2.2-5.4,3.9
		c-1.5,1.7-2.7,3.8-3.5,6.3s-1.2,5.3-1.2,8.5c0,3,0.4,5.7,1.2,8.1c0.8,2.4,1.9,4.4,3.4,6.1c1.5,1.7,3.3,3,5.4,3.9
		c2.1,0.9,4.5,1.4,7.1,1.4c2.7,0,5-0.4,7.1-1.3c2-0.9,3.8-2.2,5.2-3.9s2.5-3.8,3.2-6.2c0.7-2.5,1.1-5.2,1.1-8.4
		c0-6.4-1.4-11.3-4.3-14.7C391.7,122.6,387.6,120.9,382.3,120.9z"/>
	<path class="st0" d="M449.2,164.5V137c0-10.8-3.9-16.2-11.7-16.2c-2.1,0-4,0.4-5.8,1.2c-1.8,0.8-3.3,2-4.6,3.4
		c-1.3,1.5-2.3,3.2-3,5.2c-0.7,2-1.1,4.2-1.1,6.5v27.3h-6v-47.7h6v8.3h0.2c3.5-6.3,8.9-9.4,16-9.4c5.2,0,9.2,1.7,11.9,5.1
		c2.7,3.4,4.1,8.3,4.1,14.7v29H449.2z"/>
	<path class="st0" d="M466.8,155.9c0.9,0.7,1.9,1.4,2.9,1.9s2.1,1,3.3,1.4c1.1,0.4,2.2,0.7,3.4,0.9s2.2,0.3,3.2,0.3
		c7.1,0,10.6-2.7,10.6-8c0-1.2-0.2-2.3-0.7-3.1c-0.5-0.9-1.2-1.7-2.1-2.4c-0.9-0.7-2-1.4-3.4-2c-1.3-0.6-2.8-1.3-4.4-2
		c-2.2-0.9-4.1-1.8-5.7-2.7c-1.6-0.9-2.9-1.9-3.9-3s-1.8-2.3-2.3-3.6c-0.5-1.3-0.7-2.8-0.7-4.5c0-2.1,0.5-4,1.4-5.6
		c0.9-1.6,2.1-3,3.7-4.2c1.6-1.1,3.3-2,5.4-2.6c2-0.6,4.2-0.9,6.4-0.9c4.1,0,7.7,0.8,10.8,2.3v6.3c-3.6-2.3-7.4-3.4-11.5-3.4
		c-1.5,0-2.8,0.2-4.1,0.6c-1.2,0.4-2.3,0.9-3.1,1.6c-0.9,0.7-1.5,1.5-2,2.4s-0.7,2-0.7,3.1c0,1.2,0.2,2.2,0.6,3.1
		c0.4,0.9,1,1.7,1.7,2.4s1.8,1.4,3.1,2c1.3,0.7,2.8,1.4,4.6,2.1c2.3,0.9,4.3,1.9,6,2.8s3.1,1.9,4.1,3c1.1,1.1,1.9,2.3,2.4,3.6
		c0.5,1.3,0.8,2.8,0.8,4.6c0,2.1-0.4,4-1.3,5.7s-2.1,3.1-3.7,4.2c-1.6,1.1-3.4,2-5.5,2.6c-2.1,0.6-4.4,0.9-6.9,0.9
		c-4.8,0-8.9-1-12.2-3V155.9z"/>
</g>
<g>
	<path class="st1" d="M86.8,129.7c0,5.8,0,11.6,0,17.5c-2.9,0-5.8,0-8.7,0c0,2.9,0,5.8,0,8.8c-5.9,0-11.7,0-17.6,0
		c0-2.9,0-5.8,0-8.7l0,0c2.9,0,5.8,0,8.8,0c0-3,0-5.9,0-8.8c2.9,0,5.8,0,8.8,0c0-3,0-5.9,0-8.8C80.9,129.7,83.8,129.7,86.8,129.7
		L86.8,129.7z"/>
	<path class="st1" d="M121.9,68.2c2.9,0,5.8,0,8.8,0c0,2.9,0,5.8,0,8.7c2.9,0,5.8,0,8.8,0c0,5.9,0,11.7,0,17.6c-2.9,0-5.8,0-8.7,0
		l0,0c0-2.9,0-5.8,0-8.8c-3,0-5.9,0-8.8,0c0,0,0,0,0,0c0-2.9,0-5.9,0-8.8C121.9,74.1,121.9,71.2,121.9,68.2L121.9,68.2z"/>
	<path class="st1" d="M130.7,94.6c0,2.9,0,5.8,0,8.8c-5.9,0-11.7,0-17.6,0l0,0c0-5.9,0-11.7,0-17.6c2.9,0,5.9,0,8.8,0l0,0
		c0,2.9,0,5.8,0,8.8C124.9,94.6,127.8,94.6,130.7,94.6L130.7,94.6z"/>
	<path class="st1" d="M78,59.5c0-5.8,0-11.7,0-17.6c3,0,5.9,0,8.8,0l0,0c0,2.9,0,5.9,0,8.8c0,2.9,0,5.9,0,8.8
		C83.8,59.5,80.9,59.5,78,59.5L78,59.5z"/>
	<path class="st1" d="M34.1,120.9c-2.9,0-5.8,0-8.7,0c0-5.8,0-11.7,0-17.5c2.9,0,5.8,0,8.7,0l0,0c0,2.9,0,5.9,0,8.8
		C34.1,115,34.1,118,34.1,120.9L34.1,120.9z"/>
	<path class="st1" d="M113.1,59.5c2.9,0,5.8,0,8.8,0c0,3,0,5.9,0,8.8l0,0c-2.9,0-5.9,0-8.8,0C113.1,65.3,113.1,62.4,113.1,59.5
		L113.1,59.5z"/>
	<path class="st1" d="M60.4,77c0-2.9,0-5.8,0-8.8c3,0,5.9,0,8.8,0l0,0c0,2.9,0,5.8,0,8.8C66.3,77,63.3,77,60.4,77L60.4,77z"/>
	<path class="st1" d="M51.7,85.8c0-2.9,0-5.8,0-8.8c3,0,5.9,0,8.8,0l0,0c0,2.9,0,5.8,0,8.8C57.4,85.8,54.5,85.8,51.7,85.8L51.7,85.8
		z"/>
	<path class="st1" d="M86.8,41.9c0-2.9,0-5.8,0-8.7c2.9,0,5.8,0,8.8,0c0,2.9,0,5.8,0,8.7l0,0C92.6,41.9,89.7,41.9,86.8,41.9
		L86.8,41.9z"/>
	<path class="st1" d="M95.5,41.9c2.9,0,5.8,0,8.8,0c0,3,0,5.9,0,8.8l0,0c-2.9,0-5.9,0-8.8,0c0,0,0,0,0,0
		C95.6,47.7,95.6,44.8,95.5,41.9L95.5,41.9z"/>
	<path class="st1" d="M34.1,103.3c0-2.9,0-5.8,0-8.8c3,0,5.9,0,8.8,0l0,0c0,2.9,0,5.8,0,8.8C39.9,103.3,37,103.3,34.1,103.3
		L34.1,103.3z"/>
	<path class="st1" d="M104.3,50.7c2.9,0,5.8,0,8.8,0c0,3,0,5.9,0,8.8l0,0c-2.9,0-5.9,0-8.8,0C104.3,56.5,104.3,53.6,104.3,50.7
		L104.3,50.7z"/>
	<path class="st1" d="M113.1,103.3c0,2.9,0,5.8,0,8.8c-3,0-5.9,0-8.8,0l0,0c0-2.9,0-5.8,0-8.8C107.3,103.3,110.2,103.3,113.1,103.3
		L113.1,103.3z"/>
	<path class="st1" d="M69.2,68.2c0-2.9,0-5.8,0-8.8c3,0,5.9,0,8.8,0l0,0c0,2.9,0,5.8,0,8.8C75.1,68.2,72.1,68.2,69.2,68.2L69.2,68.2
		z"/>
	<path class="st1" d="M104.3,112.1c0,2.9,0,5.8,0,8.8c-3,0-5.9,0-8.8,0l0,0c0-2.9,0-5.8,0-8.8C98.5,112.1,101.4,112.1,104.3,112.1
		L104.3,112.1z"/>
	<path class="st1" d="M42.9,129.7c-2.9,0-5.8,0-8.8,0c0-3,0-5.9,0-8.8c0,0,0,0,0,0c2.9,0,5.8,0,8.8,0
		C42.9,123.8,42.9,126.8,42.9,129.7L42.9,129.7z"/>
	<path class="st1" d="M95.5,120.9c0,2.9,0,5.8,0,8.8c-3,0-5.9,0-8.8,0c0,0,0,0,0,0c0-2.9,0-5.8,0-8.8
		C89.8,120.9,92.7,120.9,95.5,120.9L95.5,120.9z"/>
	<path class="st1" d="M42.9,94.6c0-2.9,0-5.8,0-8.8c3,0,5.9,0,8.8,0l0,0c0,2.9,0,5.8,0,8.8C48.7,94.6,45.8,94.6,42.9,94.6L42.9,94.6
		z"/>
	<path class="st1" d="M51.7,138.4c-2.9,0-5.8,0-8.8,0c0-3,0-5.9,0-8.8c0,0,0,0,0,0c2.9,0,5.8,0,8.8,0
		C51.6,132.6,51.6,135.5,51.7,138.4L51.7,138.4z"/>
	<path class="st1" d="M60.4,147.2c-2.4,0-4.8,0-7.2,0c-0.3,0-0.6,0-1,0c-0.4-0.1-0.7-0.2-0.7-0.7c0-2.7,0-5.3,0-8c0,0,0,0,0,0
		c2.6,0,5.2,0,7.7,0c0.9,0,1,0.2,1,1C60.4,142.1,60.4,144.7,60.4,147.2L60.4,147.2z"/>
	<path class="st2" d="M95.5,120.9c-2.9,0-5.8,0-8.8,0c0,3,0,5.9,0,8.8c-2.9,0-5.8,0-8.8,0c0,0,0,0,0,0c0-0.2,0-0.4,0-0.6
		c0-5.6,0-11.3,0-16.9c2.9,0,5.9,0,8.8,0c2.9,0,5.8,0,8.7,0l0,0C95.6,115.1,95.6,118,95.5,120.9z"/>
	<path class="st3" d="M60.4,147.2c0-2.6,0-5.2,0-7.7c0-0.9-0.2-1-1-1c-2.6,0-5.2,0-7.7,0c0-2.9,0-5.8,0-8.8l0,0c2.9,0,5.8,0,8.8,0
		l0,0c0,2.7,0,5.4,0,8.1c0,0.4,0,0.7,0.5,0.7c2.8,0,5.5,0,8.3,0l0,0c0,2.9,0,5.8,0,8.8C66.2,147.2,63.3,147.2,60.4,147.2z"/>
	<path class="st2" d="M78,129.7c0,2.9,0,5.8,0,8.8c-3,0-5.9,0-8.8,0c0,0,0,0,0,0c0-2.9,0-5.8,0-8.7C72.1,129.7,75,129.7,78,129.7
		L78,129.7z"/>
	<path class="st4" d="M113.1,68.2c2.9,0,5.9,0,8.8,0c0,2.9,0,5.9,0,8.8c-2.9,0-5.8,0-8.7,0C113.1,74.1,113.1,71.2,113.1,68.2
		L113.1,68.2z"/>
	<path class="st2" d="M113.1,77c2.9,0,5.8,0,8.7,0c0,2.9,0,5.9,0,8.8c-2.9,0-5.9,0-8.8,0c0,0,0,0,0,0
		C113.1,82.9,113.1,79.9,113.1,77L113.1,77z"/>
	<path class="st5" d="M130.7,94.6c-2.9,0-5.8,0-8.8,0c0-3,0-5.9,0-8.8c2.9,0,5.8,0,8.8,0C130.7,88.7,130.7,91.7,130.7,94.6z"/>
	<path class="st2" d="M104.3,112.1c-2.9,0-5.8,0-8.8,0c0,0,0,0,0,0c0-0.2,0-0.4,0-0.6c0-5.6,0-11.3,0-16.9c2.7,0,5.4,0,8.1,0
		c0.4,0,0.7,0,0.7-0.5c0-2.8,0-5.5,0-8.3l0,0c2.9,0,5.8,0,8.8,0c0,0,0,0,0,0c0,5.9,0,11.7,0,17.6c-2.9,0-5.8,0-8.8,0
		C104.3,106.3,104.3,109.2,104.3,112.1z"/>
	<path class="st4" d="M78,68.2c0-2.9,0-5.8,0-8.8c2.9,0,5.9,0,8.8,0c0,0,0,0,0,0c0,2.9,0,5.8,0,8.8c3,0,5.9,0,8.8,0
		c0,2.9,0,5.8,0,8.8c3,0,5.9,0,8.8,0c0,0,0,0,0,0c0,2.9,0,5.8,0,8.8c0,0,0,0,0,0c-5.8,0-11.7,0-17.5,0l0,0c0-2.7,0-5.4,0-8.1
		c0-0.5-0.1-0.7-0.7-0.7c-2.7,0-5.4,0-8.1,0l0,0C78,74.1,78,71.1,78,68.2z"/>
	<path class="st4" d="M95.5,41.9c0,2.9,0,5.8,0,8.8c-2.9,0-5.8,0-8.8,0c0-2.9,0-5.9,0-8.8C89.7,41.9,92.6,41.9,95.5,41.9z"/>
	<path class="st6" d="M86.8,50.7c2.9,0,5.8,0,8.8,0c0,0,0,0,0,0c0,2.9,0,5.9,0,8.8c-2.9,0-5.9,0-8.8,0c0,0,0,0,0,0
		C86.8,56.5,86.8,53.6,86.8,50.7z"/>
	<path class="st7" d="M34.1,103.3c2.9,0,5.8,0,8.8,0c0,2.9,0,5.9,0,8.8c-2.9,0-5.8,0-8.8,0C34.1,109.2,34.1,106.3,34.1,103.3z"/>
	<path class="st3" d="M34.1,112.1c2.9,0,5.8,0,8.8,0c0,0,0,0,0,0c0,2.9,0,5.8,0,8.8l0,0c-2.9,0-5.8,0-8.8,0
		C34.1,118,34.1,115,34.1,112.1z"/>
	<path class="st4" d="M104.3,59.4c2.9,0,5.9,0,8.8,0c0,2.9,0,5.9,0,8.8c0,0,0,0,0,0c-2.9,0-5.9,0-8.8,0c0,0,0,0,0,0
		C104.3,65.3,104.3,62.4,104.3,59.4L104.3,59.4z"/>
	<path class="st4" d="M42.9,112.1c0-2.9,0-5.9,0-8.8c0-2.9,0-5.8,0-8.8c2.9,0,5.8,0,8.8,0c0-2.9,0-5.9,0-8.8c2.9,0,5.8,0,8.8,0
		c0-2.9,0-5.9,0-8.8c2.9,0,5.8,0,8.8,0c2.9,0,5.9,0,8.8,0c0,0,0,0,0,0c0,2.7,0,5.4,0,8.1c0,0.5,0.1,0.7,0.7,0.7c2.7,0,5.4,0,8.1,0
		c0,0,0,0,0,0c0,2.7,0,5.4,0,8.1c0,0.6,0.2,0.7,0.7,0.7c2.7,0,5.4,0,8.1,0c0,5.6,0,11.3,0,16.9c0,0.2,0,0.4,0,0.6
		c-2.9,0-5.8,0-8.7,0c0-2.7,0-5.3,0-8c0-0.7-0.2-0.8-0.8-0.8c-5.6,0-11.2,0-16.8,0c0-2.7,0-5.4,0-8.1c0-0.5-0.1-0.7-0.7-0.7
		c-2.5,0-5,0-7.5,0c-0.5,0-0.7,0.1-0.7,0.7c0,2.5,0,4.9,0,7.4c0,0.6,0.2,0.8,0.8,0.7c2.7,0,5.3,0,8,0c0,2.7,0,5.4,0,8.1
		c0,0.6,0.2,0.7,0.7,0.7c2.7,0,5.4,0,8.1,0c0,5.6,0,11.3,0,16.9c0,0.2,0,0.4,0,0.6c-2.9,0-5.8,0-8.8,0c-2.9,0-5.8,0-8.8,0
		c0,0,0,0,0,0c0-2.7,0-5.4,0-8.1c0-0.5-0.1-0.7-0.7-0.7c-2.7,0-5.4,0-8.1,0l0,0c0-2.7,0-5.4,0-8.1c0-0.5-0.1-0.7-0.7-0.7
		C48.3,112.1,45.6,112.1,42.9,112.1L42.9,112.1z"/>
	<path class="st6" d="M78,77c-2.9,0-5.9,0-8.8,0c0-2.9,0-5.8,0-8.8c2.9,0,5.8,0,8.8,0C78,71.1,78,74.1,78,77z"/>
	<path class="st4" d="M95.5,59.5c0-2.9,0-5.9,0-8.8c2.9,0,5.9,0,8.8,0c0,2.9,0,5.9,0,8.8c0,0,0,0,0,0
		C101.4,59.5,98.5,59.5,95.5,59.5L95.5,59.5z"/>
	<path class="st3" d="M51.6,129.7c-2.9,0-5.8,0-8.8,0c0-2.9,0-5.8,0-8.8c0,0,0,0,0,0c2.9,0,5.8,0,8.8,0c0,0,0,0,0,0
		C51.7,123.8,51.7,126.7,51.6,129.7C51.7,129.7,51.6,129.7,51.6,129.7z"/>
	<path class="st6" d="M69.2,103.3c5.6,0,11.2,0,16.8,0c0.6,0,0.8,0.1,0.8,0.8c0,2.7,0,5.3,0,8c-2.9,0-5.9,0-8.8,0
		c-2.7,0-5.4,0-8.1,0c-0.6,0-0.7-0.2-0.7-0.7C69.2,108.7,69.2,106,69.2,103.3L69.2,103.3z"/>
	<path class="st7" d="M51.7,129.7c0-2.9,0-5.8,0-8.8c2.7,0,5.4,0,8.1,0c0.5,0,0.7,0.1,0.7,0.7c0,2.7,0,5.4,0,8.1
		C57.5,129.7,54.6,129.7,51.7,129.7z"/>
	<path class="st7" d="M60.4,129.7c2.9,0,5.8,0,8.8,0c0,2.9,0,5.8,0,8.7c-2.8,0-5.5,0-8.3,0c-0.5,0-0.5-0.3-0.5-0.7
		C60.4,135.1,60.4,132.4,60.4,129.7z"/>
	<path class="st2" d="M104.3,68.2c2.9,0,5.9,0,8.8,0c0,2.9,0,5.8,0,8.8c0,0,0,0,0,0c-2.9,0-5.8,0-8.8,0l0,0
		C104.3,74.1,104.3,71.2,104.3,68.2z"/>
	<path class="st1" d="M104.3,77c2.9,0,5.8,0,8.8,0c0,2.9,0,5.8,0,8.8c-2.9,0-5.8,0-8.8,0C104.3,82.9,104.3,79.9,104.3,77z"/>
	<path class="st6" d="M95.5,94.6c-2.7,0-5.4,0-8.1,0c-0.6,0-0.7-0.2-0.7-0.7c0-2.7,0-5.4,0-8.1c5.8,0,11.7,0,17.5,0
		c0,2.8,0,5.5,0,8.3c0,0.5-0.3,0.5-0.7,0.5C101,94.6,98.3,94.6,95.5,94.6z"/>
	<path class="st1" d="M104.3,68.2c0,2.9,0,5.9,0,8.8c-2.9,0-5.8,0-8.8,0c0-3,0-5.9,0-8.8c0,0,0,0,0,0
		C98.5,68.2,101.4,68.2,104.3,68.2L104.3,68.2z"/>
	<path class="st6" d="M86.8,85.8c-2.7,0-5.4,0-8.1,0c-0.5,0-0.7-0.1-0.7-0.7c0-2.7,0-5.4,0-8.1c2.7,0,5.4,0,8.1,0
		c0.5,0,0.7,0.1,0.7,0.7C86.8,80.4,86.8,83.1,86.8,85.8z"/>
	<path class="st1" d="M86.8,59.5c2.9,0,5.9,0,8.8,0c0,0,0,0,0,0c0,2.9,0,5.8,0,8.8c0,0,0,0,0,0c-2.9,0-5.8,0-8.8,0
		C86.8,65.3,86.8,62.4,86.8,59.5z"/>
	<path class="st7" d="M51.7,120.9c-2.9,0-5.8,0-8.8,0c0-2.9,0-5.8,0-8.8c2.7,0,5.4,0,8.1,0c0.5,0,0.7,0.1,0.7,0.7
		C51.6,115.5,51.7,118.2,51.7,120.9z"/>
	<path class="st2" d="M95.5,68.2c0-2.9,0-5.8,0-8.8c2.9,0,5.9,0,8.8,0c0,2.9,0,5.9,0,8.8C101.4,68.2,98.5,68.2,95.5,68.2z"/>
	<path class="st6" d="M69.2,103.3c-2.7,0-5.3,0-8,0c-0.6,0-0.8-0.1-0.8-0.7c0-2.5,0-4.9,0-7.4c0-0.5,0.1-0.7,0.7-0.7
		c2.5,0,5,0,7.5,0c0.6,0,0.7,0.2,0.7,0.7C69.2,98,69.2,100.6,69.2,103.3C69.2,103.3,69.2,103.3,69.2,103.3z"/>
</g>
</svg>
