<?xml version="1.0" encoding="utf-8"?>
<!-- Generator: Adobe Illustrator 24.0.0, SVG Export Plug-In . SVG Version: 6.00 Build 0)  -->
<svg version="1.1" id="Layer_1" xmlns="http://www.w3.org/2000/svg" xmlns:xlink="http://www.w3.org/1999/xlink" x="0px" y="0px"
	 viewBox="0 0 64 64" style="enable-background:new 0 0 64 64;" xml:space="preserve">
<style type="text/css">
	.st0{fill-rule:evenodd;clip-rule:evenodd;}
	.st1{fill-rule:evenodd;clip-rule:evenodd;fill:#FFFFFF;}
</style>
<g transform="matrix(1.711138 0 0 1.711138 -9.303671 28.796635)">
	<g>
		<path class="st0" d="M42.2-0.2c0.8-2,0.8-3.9,0.3-5.4c-0.6-1.9-3.2-4.3-4.1-3.4c-0.1,0.1-1.6,0-1.8,0.3c-0.3,0.5-0.1,0.6,0,0.8
			c0.5,0.5,1.9,1,2.5,2.6c0.3,0.7,0.8,2.2-0.2,3.2c-1.2,1.1-2.5,1.3-7.8-3.7C25.3-11.1,17.6-9,15.1-8.1c-2.5,0.8-3.7,1.7-2.7,3.7
			c1.4,2.7,0.9,1.8,2.2,4c2.1,3.5,6.7-1.6,6.7-1.6c-3.4,5.2-6.4,3.9-7.5,2.1c-1-1.6-1.8-3.5-1.8-3.5C3.4-0.3,5.7,13.5,5.7,13.5H10
			c1.1-5.1,5-4.9,5.7,0H19c2.9-9.9,9.1,0,9.1,0h3.7c0-5.3-0.6-7.3,2.2-7.7C38.6,5.2,40.8,3,42.2-0.2L42.2-0.2z"/>
		<path class="st0" d="M42.8-3.8c-0.8,0.1-1.6,0.2-2.3,0.4c0,0,0,0.1-0.1,0.1c-0.3,0.4-0.8,0.8-1.2,1c-0.1,0-0.1,0.1-0.2,0.1
			c0,0-0.1,0.1-0.1,0.1c-1.2,1.1-2.6,1.3-7.8-3.7c-5.7-5.4-13.4-3.1-15.9-2.3s-3.7,1.7-2.7,3.6c1.4,2.7,0.9,1.8,2.2,4
			c2.1,3.5,6.7-1.6,6.7-1.6c-3.4,5.2-6.4,3.9-7.5,2.1c-1-1.6-1.8-3.5-1.8-3.5C3.4-0.3,5.7,13.5,5.7,13.5H10c1.1-5.1,5-4.9,5.7,0H19
			c2.9-9.9,9.1,0,9.1,0h3.7c0-5.3-0.6-7.3,2.2-7.7c4.6-0.6,6.8-2.8,8.2-6.1C42.7-1.5,42.9-2.7,42.8-3.8L42.8-3.8z"/>
	</g>
	<g transform="matrix(.134666 0 0 .134666 3.786295 -12.554531)">
		<path class="st1" d="M173.7,75.2l34.6,11.5c-1.1,5.3-11,15.5-23.8,11.2C167.7,92.3,173.7,75.2,173.7,75.2z"/>
		<ellipse transform="matrix(0.9944 -0.1056 0.1056 0.9944 -8.0052 20.6075)" class="st0" cx="190.6" cy="85.9" rx="8.9" ry="8.6"/>
	</g>
	<path class="st0" d="M36.6-7.9c0.1,0.1,0.3,0.3,0.5,0.4c0.9-0.7,2.1-0.7,3-1.1c-0.9-0.8-2.3-1.4-2.7-0.9c-0.1,0.1-0.6,0.6-0.9,0.9
		C36.2-8.2,36.4-8.1,36.6-7.9L36.6-7.9z"/>
</g>
</svg>
